# File created by Blade
# Date/Time:  Tue Apr 07 21:32:54 2015
#---------------------------------------------------------
:version 1.10
:name HOM
:units
  mass 1.0
  length 1.000000
  angle deg
:documentation
     Acclaim Skeleton File
:root
   axis xyz
   order TX TY TZ RX RY RZ
   position 0.000000 0.000000 0.000000
   orientation 0 0 0
:bonedata
   begin
      id 1
      name Spine_dum
      direction 0.000000 1.000000 0.000000
      length 4.885285
      axis 0.0 0.0 0.0 xyz
   end
   begin
      id 2
      name LeftUpLeg_dum
      direction 1.000000 0.000000 0.000000
      length 2.672193
      axis 0.0 0.0 0.0 xyz
   end
   begin
      id 3
      name RightUpLeg_dum
      direction -1.000000 0.000000 0.000000
      length 2.672193
      axis 0.0 0.0 0.0 xyz
   end
   begin
      id 4
      name Spine
      direction 0.000000 1.000000 0.000000
      length 0.000000
      axis 0.0 0.0 0.0 xyz
      dof rx ry rz
   end
   begin
      id 5
      name Spine_dum1
      direction 0.000000 1.000000 0.000000
      length 16.494159
      axis 0.0 0.0 0.0 xyz
   end
   begin
      id 6
      name Spine_dum2
      direction 0.000000 1.000000 0.000000
      length 10.663448
      axis 0.0 0.0 0.0 xyz
   end
   begin
      id 7
      name Spine_dum3
      direction 0.000000 1.000000 0.000000
      length 10.663448
      axis 0.0 0.0 0.0 xyz
   end
   begin
      id 8
      name Head
      direction 0.000000 1.000000 0.000000
      length 4.527550
      axis 0.0 0.0 0.0 xyz
      dof rx ry rz
   end
   begin
      id 9
      name LeftShoulder
      direction 1.000000 0.000000 0.000000
      length 7.531907
      axis 0.0 0.0 -90.0 xyz
      dof rx ry rz
   end
   begin
      id 10
      name LeftArm
      direction 1.000000 0.000000 0.000000
      length 10.229199
      axis 0.0 0.0 -90.0 xyz
      dof rx ry rz
   end
   begin
      id 11
      name LeftForeArm
      direction 1.000000 0.000000 0.000000
      length 8.673495
      axis 0.0 0.0 -90.0 xyz
      dof ry rz rx
   end
   begin
      id 12
      name LeftHand
      direction 0.000000 0.000000 0.000000
      length 0.000000
      axis 0.0 0.0 -90.0 xyz
      dof rx ry rz
   end
   begin
      id 13
      name LeftHand_dum1
      direction 0.000000 0.000000 0.000000
      length 0.000000
      axis 0.0 0.0 -90.0 xyz
   end
   begin
      id 14
      name LeftHand_dum2
      direction 1.000000 0.000000 0.000000
      length 3.937000
      axis 0.0 0.0 -90.0 xyz
   end
   begin
      id 15
      name LeftHandThumb1
      direction 0.000000 0.000000 1.000000
      length 3.937000
      axis 0.0 0.0 -90.0 xyz
      dof rx rz ry
   end
   begin
      id 16
      name RightShoulder
      direction -1.000000 0.000000 0.000000
      length 7.531907
      axis 0.0 0.0 90.0 xyz
      dof rx ry rz
   end
   begin
      id 17
      name RightArm
      direction -1.000000 0.000000 0.000000
      length 10.229199
      axis 0.0 0.0 90.0 xyz
      dof rx ry rz
   end
   begin
      id 18
      name RightForeArm
      direction -1.000000 0.000000 0.000000
      length 8.673495
      axis 0.0 0.0 90.0 xyz
      dof ry rz rx
   end
   begin
      id 19
      name RightHand
      direction 0.000000 0.000000 0.000000
      length 0.000000
      axis 0.0 0.0 90.0 xyz
      dof rx ry rz
   end
   begin
      id 20
      name RightHand_dum1
      direction 0.000000 0.000000 0.000000
      length 0.000000
      axis 0.0 0.0 90.0 xyz
   end
   begin
      id 21
      name RightHand_dum2
      direction -1.000000 0.000000 0.000000
      length 3.937000
      axis 0.0 0.0 90.0 xyz
   end
   begin
      id 22
      name RightHandThumb1
      direction 0.000000 0.000000 1.000000
      length 3.937000
      axis 0.0 0.0 90.0 xyz
      dof rx rz ry
   end
   begin
      id 23
      name LeftUpLeg
      direction 0.000000 -1.000000 0.000000
      length 16.263388
      axis 0.0 0.0 0.0 xyz
      dof rx ry rz
   end
   begin
      id 24
      name LeftLeg
      direction 0.000000 -1.000000 0.000000
      length 14.328163
      axis 0.0 0.0 0.0 xyz
      dof rx ry rz
   end
   begin
      id 25
      name LeftFoot
      direction 0.000000 -0.258819 0.965926
      length 5.031290
      axis 15.0 0.0 0.0 xyz
      dof rx ry rz
   end
   begin
      id 26
      name LeftToeBase
      direction 0.000000 0.000000 1.000000
      length 2.952750
      axis 0.0 0.0 0.0 xyz
      dof rx ry rz
   end
   begin
      id 27
      name RightUpLeg
      direction 0.000000 -1.000000 0.000000
      length 16.263388
      axis 0.0 0.0 0.0 xyz
      dof rx ry rz
   end
   begin
      id 28
      name RightLeg
      direction 0.000000 -1.000000 0.000000
      length 14.328163
      axis 0.0 0.0 0.0 xyz
      dof rx ry rz
   end
   begin
      id 29
      name RightFoot
      direction 0.000000 -0.258819 0.965926
      length 5.031290
      axis 15.0 0.0 0.0 xyz
      dof rx ry rz
   end
   begin
      id 30
      name RightToeBase
      direction 0.000000 0.000000 1.000000
      length 2.952750
      axis 0.0 0.0 0.0 xyz
      dof rx ry rz
   end
:hierarchy
   begin
      root Spine_dum LeftUpLeg_dum RightUpLeg_dum
      Spine_dum Spine
      LeftUpLeg_dum LeftUpLeg
      RightUpLeg_dum RightUpLeg
      Spine Spine_dum1 Spine_dum2 Spine_dum3
      Spine_dum1 Head
      Spine_dum2 LeftShoulder
      Spine_dum3 RightShoulder
      LeftShoulder LeftArm
      LeftArm LeftForeArm
      LeftForeArm LeftHand
      LeftHand LeftHand_dum1 LeftHand_dum2
      LeftHand_dum1 LeftHandThumb1
      RightShoulder RightArm
      RightArm RightForeArm
      RightForeArm RightHand
      RightHand RightHand_dum1 RightHand_dum2
      RightHand_dum1 RightHandThumb1
      LeftUpLeg LeftLeg
      LeftLeg LeftFoot
      LeftFoot LeftToeBase
      RightUpLeg RightLeg
      RightLeg RightFoot
      RightFoot RightToeBase
   end

# File created by Blade
# Date/Time:  Tue Apr 07 21:33:03 2015
# Frame Rate: 120.000 fps
#------------------------------------------------------
:FULLY-SPECIFIED
:DEGREES
119
root -0.971390 32.981562 -0.537453 10.680382 4.289267 -1.362854
Spine -9.477732 -3.193431 2.576060
Head 19.627753 35.811770 -10.904761
LeftShoulder -23.810275 44.191986 0.100291
LeftArm 58.462779 -9.574011 -77.901927
LeftForeArm -10.512457 0.000000 1.169598
LeftHand 1.300619 -0.000000 -16.173487
LeftHandThumb1 -26.253704 0.000000 33.147579
RightShoulder -5.520885 -8.334719 -19.433053
RightArm 13.632314 -7.299346 78.535898
RightForeArm 8.760140 -0.000000 9.290732
RightHand 3.525557 -0.000000 17.236116
RightHandThumb1 -24.326973 -0.000000 -32.862282
LeftUpLeg -9.095444 -8.241842 3.775084
LeftLeg 0.451674 -0.000000 -0.000000
LeftFoot -4.737606 7.036286 -17.958616
LeftToeBase -8.061364 -0.000000 0.000000
RightUpLeg -7.984640 -0.440879 2.465661
RightLeg 0.019160 -0.000000 -0.000000
RightFoot -5.813764 -13.656515 6.681753
RightToeBase -2.359053 -0.000000 0.000000
120
root -0.963904 32.982134 -0.571397 10.676505 4.631453 -1.270881
Spine -9.160116 -3.081451 2.530883
Head 19.776424 37.178307 -11.079671
LeftShoulder -23.748267 43.996710 -0.122399
LeftArm 58.273515 -8.275826 -78.213240
LeftForeArm -11.102027 -0.000000 1.297878
LeftHand 1.080302 -0.000000 -17.309702
LeftHandThumb1 -26.253704 0.000000 33.147579
RightShoulder -5.501195 -8.508861 -19.384542
RightArm 13.532337 -7.994388 79.560280
RightForeArm 8.961841 -0.000000 9.561917
RightHand 3.497449 0.000000 17.538048
RightHandThumb1 -24.326973 -0.000000 -32.862282
LeftUpLeg -9.346433 -8.371060 3.701043
LeftLeg 0.764599 -0.000000 -0.000000
LeftFoot -4.710460 6.862742 -17.819130
LeftToeBase -8.221665 -0.000000 0.000000
RightUpLeg -8.139152 -0.530654 2.391484
RightLeg 0.276997 -0.000000 -0.000000
RightFoot -5.944857 -13.917854 6.616713
RightToeBase -2.363749 -0.000000 0.000000
121
root -0.957591 32.983705 -0.609028 10.691923 4.963998 -1.182791
Spine -8.845987 -2.926299 2.483673
Head 19.919475 38.480342 -11.280645
LeftShoulder -23.694812 43.770135 -0.349843
LeftArm 58.096266 -6.993431 -78.512719
LeftForeArm -11.797121 -0.000000 1.391641
LeftHand 1.016032 -0.000000 -18.230443
LeftHandThumb1 -26.253704 0.000000 33.147579
RightShoulder -5.501299 -8.673437 -19.342068
RightArm 13.442709 -8.781654 80.539370
RightForeArm 9.367935 0.000000 9.915134
RightHand 3.341217 -0.000000 17.609173
RightHandThumb1 -24.326973 -0.000000 -32.862282
LeftUpLeg -9.625448 -8.467625 3.631805
LeftLeg 1.086594 -0.000000 -0.000000
LeftFoot -4.663957 6.660920 -17.712197
LeftToeBase -8.315037 -0.000000 0.000000
RightUpLeg -8.333087 -0.734230 2.337314
RightLeg 0.556792 -0.000000 -0.000000
RightFoot -6.040534 -14.049234 6.509498
RightToeBase -2.428147 -0.000000 0.000000
122
root -0.950839 32.985773 -0.647192 10.730793 5.349489 -1.083382
Spine -8.558481 -2.803459 2.425426
Head 20.075671 39.758465 -11.456134
LeftShoulder -23.650951 43.580989 -0.554956
LeftArm 57.940192 -5.760617 -78.900368
LeftForeArm -12.665484 -0.000000 1.471583
LeftHand 0.959729 -0.000000 -18.999804
LeftHandThumb1 -26.253704 0.000000 33.147579
RightShoulder -5.485450 -8.856424 -19.304106
RightArm 13.331413 -9.621201 81.472729
RightForeArm 9.741426 -0.000000 10.299579
RightHand 3.259371 -0.000000 17.596235
RightHandThumb1 -24.326973 -0.000000 -32.862282
LeftUpLeg -9.933434 -8.647016 3.568759
LeftLeg 1.398209 -0.000000 -0.000000
LeftFoot -4.606948 6.500749 -17.597675
LeftToeBase -8.437535 -0.000000 0.000000
RightUpLeg -8.538099 -0.868945 2.264335
RightLeg 0.817373 -0.000000 -0.000000
RightFoot -6.116313 -14.319453 6.362336
RightToeBase -2.497330 -0.000000 0.000000
123
root -0.943543 32.987685 -0.685885 10.759524 5.735247 -0.988412
Spine -8.234203 -2.663167 2.373495
Head 20.215705 41.018752 -11.644338
LeftShoulder -23.669323 43.438979 -0.806905
LeftArm 57.839253 -4.603121 -79.369158
LeftForeArm -13.215169 -0.000000 1.629329
LeftHand 0.811840 -0.000000 -19.541893
LeftHandThumb1 -26.253704 0.000000 33.147579
RightShoulder -5.477779 -9.015633 -19.278194
RightArm 13.210010 -10.372811 82.398734
RightForeArm 10.069179 -0.000000 10.700428
RightHand 3.260448 -0.000000 17.762705
RightHandThumb1 -24.326973 -0.000000 -32.862282
LeftUpLeg -10.225012 -8.883468 3.518179
LeftLeg 1.692990 -0.000000 -0.000000
LeftFoot -4.550812 6.383509 -17.525704
LeftToeBase -8.455773 -0.000000 0.000000
RightUpLeg -8.729484 -0.951181 2.188109
RightLeg 1.073500 -0.000000 -0.000000
RightFoot -6.210368 -14.624071 6.270530
RightToeBase -2.515712 -0.000000 0.000000
124
root -0.935219 32.990143 -0.726452 10.791521 6.138300 -0.893469
Spine -7.912981 -2.524072 2.336890
Head 20.417137 42.184140 -11.768294
LeftShoulder -23.621822 43.289317 -1.017554
LeftArm 57.688827 -3.534353 -79.914649
LeftForeArm -13.706561 0.000000 1.758009
LeftHand 0.707989 -0.000000 -20.205416
LeftHandThumb1 -26.253704 0.000000 33.147579
RightShoulder -5.464601 -9.173853 -19.280960
RightArm 13.063710 -10.955187 83.356689
RightForeArm 10.491247 -0.000000 11.126692
RightHand 3.293243 -0.000000 18.002205
RightHandThumb1 -24.326973 -0.000000 -32.862282
LeftUpLeg -10.537501 -9.091457 3.460313
LeftLeg 2.012741 -0.000000 -0.000000
LeftFoot -4.472927 6.239328 -17.429688
LeftToeBase -8.612832 -0.000000 0.000000
RightUpLeg -8.926519 -1.135507 2.123691
RightLeg 1.328530 -0.000000 -0.000000
RightFoot -6.264552 -14.846811 6.135704
RightToeBase -2.672499 -0.000000 0.000000
125
root -0.926845 32.992469 -0.766522 10.820889 6.550128 -0.800662
Spine -7.593492 -2.372774 2.292917
Head 20.646868 43.269016 -11.868687
LeftShoulder -23.533740 43.097144 -1.149394
LeftArm 57.461365 -2.446702 -80.404523
LeftForeArm -14.217895 -0.000000 1.890612
LeftHand 0.600923 0.000000 -21.040977
LeftHandThumb1 -26.253704 0.000000 33.147579
RightShoulder -5.459662 -9.383975 -19.287788
RightArm 12.967192 -11.567307 84.266080
RightForeArm 10.909150 -0.000000 11.572803
RightHand 3.387669 0.000000 18.112745
RightHandThumb1 -24.326973 -0.000000 -32.862282
LeftUpLeg -10.838163 -9.293390 3.406207
LeftLeg 2.320005 -0.000000 -0.000000
LeftFoot -4.386004 6.071644 -17.345661
LeftToeBase -8.725534 -0.000000 0.000000
RightUpLeg -9.123730 -1.169730 2.039102
RightLeg 1.605399 -0.000000 -0.000000
RightFoot -6.373642 -15.206965 6.076442
RightToeBase -2.689806 -0.000000 0.000000
